HIERARCHY
ROOT Hips
{
	OFFSET -3.958830 18.904000 13.208200
	CHANNELS 6 Xposition Yposition Zposition Zrotation Yrotation Xrotation 
	JOINT LHipJoint
	{
		OFFSET 0.000000 0.000000 0.000000
		CHANNELS 3 Zrotation Yrotation Xrotation
		JOINT LeftUpLeg
		{
			OFFSET 1.800000 -1.400000 0.085000
			CHANNELS 3 Zrotation Yrotation Xrotation
			JOINT LeftLeg
			{
				OFFSET 2.215000 -6.000000 0.000000
				CHANNELS 3 Zrotation Yrotation Xrotation
				JOINT LeftFoot
				{
					OFFSET 2.500000 -6.900000 0.000000
					CHANNELS 3 Zrotation Yrotation Xrotation
					JOINT LeftToeBase
					{
						OFFSET 0.200000 -0.500000 1.950000
						CHANNELS 3 Zrotation Yrotation Xrotation
						End Site
						{
							OFFSET 0.000000 0.000000 0.000000
						}
					}
				}
			}
		}
	}
	JOINT RHipJoint
	{
		OFFSET 0.000000 0.000000 0.000000
		CHANNELS 3 Zrotation Yrotation Xrotation
		JOINT RightUpLeg
		{
			OFFSET -1.800000 -1.400000 0.085000
			CHANNELS 3 Zrotation Yrotation Xrotation
			JOINT RightLeg
			{
				OFFSET -2.215000 -6.000000 0.000000
				CHANNELS 3 Zrotation Yrotation Xrotation
				JOINT RightFoot
				{
					OFFSET -2.500000 -6.900000 0.000000
					CHANNELS 3 Zrotation Yrotation Xrotation
					JOINT RightToeBase
					{
						OFFSET -0.200000 -0.500000 1.950000
						CHANNELS 3 Zrotation Yrotation Xrotation
						End Site
						{
							OFFSET 0.000000 0.000000 0.000000
						}
					}
				}
			}
		}
	}
	JOINT LowerBack
	{
		OFFSET 0.000000 0.000000 0.000000
		CHANNELS 3 Zrotation Yrotation Xrotation
		JOINT Spine
		{
			OFFSET -0.087000 1.940000 -0.288900
			CHANNELS 3 Zrotation Yrotation Xrotation
			JOINT Spine1
			{
				OFFSET 0.000000 1.950000 0.060000
				CHANNELS 3 Zrotation Yrotation Xrotation
				JOINT Neck
				{
					OFFSET 0.000000 0.000000 0.000000
					CHANNELS 3 Zrotation Yrotation Xrotation
					JOINT Neck1
					{
						OFFSET 0.000000 1.600000 0.340000
						CHANNELS 3 Zrotation Yrotation Xrotation
						JOINT Head
						{
							OFFSET 0.000000 1.667000 -0.240000
							CHANNELS 3 Zrotation Yrotation Xrotation
							End Site
							{
								OFFSET 0.000000 0.000000 0.000000
							}
						}
					}
				}
				JOINT LeftShoulder
				{
					OFFSET 0.000000 0.000000 0.000000
					CHANNELS 3 Zrotation Yrotation Xrotation
					JOINT LeftArm
					{
						OFFSET 2.700000 1.550000 -0.730000
						CHANNELS 3 Zrotation Yrotation Xrotation
						JOINT LeftForeArm
						{
							OFFSET 5.450000 0.000000 0.000000
							CHANNELS 3 Zrotation Yrotation Xrotation
							JOINT LeftHand
							{
								OFFSET 3.450000 0.000000 0.000000
								CHANNELS 3 Zrotation Yrotation Xrotation
								JOINT LeftHandIndex1
								{
									OFFSET 0.750000 0.000000 0.000000
									CHANNELS 3 Zrotation Yrotation Xrotation
									End Site
									{
										OFFSET 0.000000 0.000000 0.000000
									}
								}
							}
						}
					}
				}
				JOINT RightShoulder
				{
					OFFSET 0.000000 0.000000 0.000000
					CHANNELS 3 Zrotation Yrotation Xrotation
					JOINT RightArm
					{
						OFFSET -2.700000 1.550000 -0.730000
						CHANNELS 3 Zrotation Yrotation Xrotation
						JOINT RightForeArm
						{
							OFFSET -5.450000 0.000000 0.000000
							CHANNELS 3 Zrotation Yrotation Xrotation
							JOINT RightHand
							{
								OFFSET -3.450000 0.000000 0.000000
								CHANNELS 3 Zrotation Yrotation Xrotation
								JOINT RightHandIndex1
								{
									OFFSET -0.750000 0.000000 0.000000
									CHANNELS 3 Zrotation Yrotation Xrotation
									End Site
									{
										OFFSET 0.000000 0.000000 0.000000
									}
								}
							}
						}
					}
				}
			}
		}
	}
}
MOTION
Frames: 8
Frame Time: 0.016667
0.024940 17.135080 -1.736230 4.506277 -3.605765 6.893713 -15.280882 11.873582 5.058848 -5.550271 -9.170101 -39.179825 -8.128550 2.481572 2.557838 -1.319960 2.417566 3.994051 0.715640 0.439830 0.313200 18.278567 -10.642113 2.027870 -6.927877 1.472383 -14.584034 4.520748 -5.179270 19.931027 -0.178378 -3.815641 3.178770 0.533800 0.715010 0.263080 -3.394846 -1.504131 -8.030730 1.852982 6.600999 17.918359 1.973351 7.328810 13.199122 -7.104367 -3.983443 -6.946872 -11.881886 -5.856862 34.564578 1.326970 -10.970720 -14.081870 21.547570 -31.939534 -10.580727 24.093882 -59.514986 -11.346535 19.327253 -15.429106 -3.992670 -3.922896 3.035178 0.504920 0.355940 -0.153080 0.496240 -8.808852 39.186800 6.221363 -2.034816 34.245982 -9.410006 -50.062390 33.458216 -17.558013 1.780591 -1.583289 -0.405140 0.688280 -0.076990 -0.026710 
-0.048660 17.049010 -1.724480 3.567878 -4.897382 6.913068 -15.285806 11.984258 4.933493 -3.683513 -8.412484 -40.080711 -8.016092 3.241126 6.808827 -1.376506 2.762930 3.872553 0.702920 0.432530 0.265220 18.271239 -10.611829 2.107845 -5.705260 1.843483 -14.587523 4.864715 -5.266377 20.833487 -0.148214 -3.962579 3.149666 0.584590 0.825230 0.268900 -3.361223 -1.604898 -7.931480 1.754217 6.903915 16.621797 1.884114 7.952796 13.835600 -7.315056 -3.926183 -6.396894 -11.580778 -5.665347 33.729506 0.619570 -10.865530 -12.582120 21.528123 -34.011730 -11.703237 15.910891 -61.946133 -7.395981 20.660841 -9.125941 -4.242502 -4.038354 2.998009 0.452650 0.451170 -0.237220 0.512530 -8.696994 41.952349 4.975259 -1.637907 37.211890 -8.383466 -45.851092 26.414514 -14.119251 1.822104 -1.667009 -0.453580 0.746510 -0.029140 -0.020510 
-0.116940 16.983150 -1.706460 2.455520 -5.972523 6.769193 -15.273614 12.055168 4.830340 -1.518458 -7.761576 -41.202078 -7.690614 4.502642 13.635113 -1.445328 3.479768 3.587990 0.730060 0.444550 0.286580 18.289617 -10.599487 2.192628 -4.203700 2.248104 -14.608251 4.903327 -5.353537 22.338159 -0.153577 -4.130803 3.063933 0.668350 0.894140 0.270150 -3.394889 -1.612200 -7.855274 2.236612 6.750449 15.685769 0.995403 8.252275 14.218428 -7.249471 -4.090448 -5.455790 -11.528844 -5.382144 32.902298 -0.109520 -10.718790 -12.448360 20.210451 -35.853344 -12.415807 4.125932 -62.604873 -0.542823 24.655969 -7.461357 -5.273364 -4.139148 2.910093 0.456820 0.509840 -0.292940 0.507320 -7.993019 44.513123 3.356690 1.199829 40.786678 -6.678756 -44.091268 20.732640 -12.425588 1.806167 -1.691867 -0.526780 0.818900 0.010880 -0.051260 
-0.182870 16.943940 -1.677740 1.629646 -6.710022 6.180063 -15.285577 12.176736 4.736194 0.096489 -7.215200 -41.346414 -7.074067 5.911096 20.818708 -1.448829 4.432579 3.180414 0.816690 0.544120 0.350510 18.279195 -10.579106 2.261016 -2.682855 2.584408 -14.424188 4.463107 -5.394323 24.475645 -0.209814 -4.332464 2.961323 0.781380 0.878710 0.266180 -3.350440 -1.722766 -7.841584 2.110550 6.363827 15.231944 0.330346 8.177435 14.655647 -7.101086 -4.377187 -4.618829 -11.814347 -4.689707 32.727731 -0.984530 -10.060560 -13.273360 17.522912 -37.737081 -12.411448 -8.020526 -61.614743 6.901022 29.943327 -9.388689 -6.988743 -4.168606 2.786367 0.481290 0.523130 -0.288560 0.510830 -6.049392 46.907221 2.350244 6.533121 43.993426 -4.296410 -44.758080 17.781866 -12.415813 1.741684 -1.694630 -0.561570 0.858400 -0.002650 -0.089610 
-0.238440 16.915910 -1.639660 0.748381 -7.309303 5.700097 -15.278184 12.254817 4.623381 1.543260 -6.444406 -40.774634 -6.595139 7.293732 26.779572 -1.448902 5.464000 2.736593 0.971640 0.718010 0.496520 18.271669 -10.592568 2.413796 -1.166333 3.379335 -15.010803 4.178772 -5.522001 27.800603 -0.318854 -4.634415 2.802308 0.933410 0.836720 0.266940 -3.349273 -1.667835 -8.017115 2.592876 6.209520 15.073887 -0.440041 8.440896 14.990853 -6.817519 -4.498949 -3.838977 -11.993124 -4.268307 33.378496 -2.230440 -9.637700 -15.168220 15.404571 -37.295035 -11.816618 -24.314051 -61.293393 19.264165 37.422251 -10.954403 -10.064045 -4.063738 2.443544 0.515810 0.521850 -0.246020 0.514250 -5.267947 46.918801 1.827570 14.319754 47.140434 -0.265507 -47.978958 16.702609 -14.027198 1.588662 -1.685342 -0.575820 0.927590 -0.046730 -0.135790 
-0.282570 16.895660 -1.599370 0.035199 -6.287506 5.308608 -15.204428 12.212116 4.583890 1.682012 -6.015367 -39.995212 -4.625531 7.973364 32.106739 -1.334604 6.193310 2.395210 1.059800 0.837650 0.552290 18.281074 -10.742911 2.784392 -0.477225 4.817416 -16.873890 5.358059 -6.430113 32.807159 -0.487649 -5.293370 2.517959 0.998300 0.772690 0.295390 -3.474892 -1.169136 -8.709666 3.469922 6.230461 17.357211 -1.223105 8.876544 15.438072 -5.273406 -4.741290 -6.751125 -11.785806 -3.852801 35.764675 -3.056930 -9.559450 -15.571780 11.946397 -34.126709 -6.105356 -35.649720 -66.581867 26.742911 44.839991 -13.167641 -14.580722 -3.680777 1.991679 0.499000 0.506680 -0.199900 0.518780 -4.561996 42.751789 2.020580 21.915517 51.052430 3.002605 -51.714791 17.786278 -16.833198 1.498713 -1.679190 -0.517770 0.893670 -0.085020 -0.136390 
-0.312250 16.867820 -1.542750 -0.835676 -3.357992 5.105193 -15.021261 11.862558 4.221773 1.170771 -5.728185 -38.427549 -1.624638 7.748373 36.121606 -1.247021 6.567816 2.256979 1.096830 0.868260 0.550450 18.501815 -10.799182 3.150015 -1.155751 6.844977 -19.885951 9.250844 -8.953051 38.619998 -0.789656 -6.449660 2.131063 0.988450 0.726660 0.278230 -4.124351 -0.049310 -8.744764 5.625750 6.561128 18.328167 -1.491237 9.545393 19.339127 -2.624692 -5.382124 -11.491774 -11.641025 -4.069784 36.697413 -1.319870 -10.476140 -17.066630 8.340169 -25.319241 5.566828 -54.534217 -81.536694 33.996819 48.599149 -24.892757 -20.941888 -3.828157 1.860011 0.562920 0.426630 -0.155680 0.539600 -3.454420 33.121224 2.065508 28.795916 55.259047 5.637352 -56.484613 23.312923 -21.758972 1.416757 -1.520954 -0.498320 0.896080 -0.107870 -0.127270 
-0.334080 16.825680 -1.478740 -1.679968 0.492189 5.012321 -15.021849 11.804874 3.847571 0.327949 -5.562724 -36.987615 2.259837 6.571749 38.358306 -1.135022 6.601252 2.287692 1.067660 0.838910 0.504410 18.565153 -10.403571 3.519494 -3.514175 8.765739 -23.161051 15.837921 -13.082573 42.860735 -1.136292 -7.852064 1.710372 0.931930 0.723890 0.245050 -4.272668 -0.209811 -8.598770 7.641995 4.783336 16.143716 -3.481384 7.858278 22.870574 -1.636694 -5.869705 -11.911476 -12.895871 -3.966647 36.461155 0.110960 -11.393870 -17.526850 4.309641 -23.368906 8.034278 -59.059412 -75.504191 33.606243 53.310085 -39.366238 -28.249767 -3.744081 2.028522 0.587810 0.374710 -0.137920 0.567850 -0.940777 30.864351 4.306239 36.030512 56.492800 7.167861 -59.937183 31.462904 -27.467587 1.231774 -1.326507 -0.489030 0.909310 -0.125830 -0.095770 
